<svg xmlns="http://www.w3.org/2000/svg" width="24" height="24" viewBox="0 0 24 24">
  <path id="Subtraction_315" data-name="Subtraction 315" d="M16550,2544a1,1,0,0,1-1-1v-2a1,1,0,1,1,2,0v2A1,1,0,0,1,16550,2544Zm7.781-3.217a1,1,0,0,1-.705-.3l-1.422-1.417a1,1,0,1,1,1.412-1.417l1.422,1.421a1,1,0,0,1,0,1.413A1.008,1.008,0,0,1,16557.781,2540.782Zm-15.561,0a1.008,1.008,0,0,1-.707-.3,1,1,0,0,1,0-1.413l1.422-1.421a1,1,0,0,1,1.412,1.417l-1.422,1.417A1,1,0,0,1,16542.221,2540.782ZM16550,2538a6,6,0,1,1,6-6A6.009,6.009,0,0,1,16550,2538Zm0-11h0v10a5,5,0,1,0,0-10Zm11,6h-2a1,1,0,1,1,0-2h2a1,1,0,1,1,0,2Zm-20,0h-2a1,1,0,0,1,0-2h2a1,1,0,0,1,0,2Zm15.357-6.36a1,1,0,0,1-.705-.295,1,1,0,0,1,0-1.413l1.422-1.422a1,1,0,0,1,1.412,1.417l-1.422,1.417A1,1,0,0,1,16556.359,2526.642Zm-12.719,0a1,1,0,0,1-.705-.295l-1.422-1.417a1,1,0,1,1,1.412-1.417l1.422,1.422a1,1,0,0,1,0,1.413A1.008,1.008,0,0,1,16543.641,2526.642ZM16550,2524a1,1,0,0,1-1-1v-2a1,1,0,1,1,2,0v2A1,1,0,0,1,16550,2524Z" transform="translate(-16538 -2520)" fill="#707070"/>
</svg>
